Cantarell-Light.ufo
<glyph name="comma" format="1">
  <advance width="200"/>
  <unicode hex="002C"/>
  <outline>
    <contour>
      <point x="83" y="-167" type="line"/>
      <point x="109" y="-96"/>
      <point x="125" y="4"/>
      <point x="125" y="103" type="curve"/>
      <point x="102" y="103" type="line"/>
      <point x="102" y="4"/>
      <point x="88" y="-96"/>
      <point x="64" y="-167" type="curve"/>
    </contour>
  </outline>
</glyph>
<glyph name="E" format="1">
  <advance width="553"/>
  <unicode hex="0045"/>
  <note>
    E
  </note>
  <outline>
    <contour>
      <point x="131" y="0" type="line"/>
      <point x="131" y="694" type="line"/>
      <point x="110" y="694" type="line"/>
      <point x="110" y="0" type="line"/>
    </contour>
    <contour>
      <point x="504" y="0" type="line"/>
      <point x="504" y="18" type="line"/>
      <point x="119" y="18" type="line"/>
      <point x="119" y="0" type="line"/>
    </contour>
    <contour>
      <point x="477" y="355" type="line"/>
      <point x="477" y="373" type="line"/>
      <point x="119" y="373" type="line"/>
      <point x="119" y="355" type="line"/>
    </contour>
    <contour>
      <point x="504" y="676" type="line"/>
      <point x="504" y="694" type="line"/>
      <point x="119" y="694" type="line"/>
      <point x="119" y="676" type="line"/>
    </contour>
    <contour>
      <point x="498" y="10" type="move" name="ogonek"/>
    </contour>
    <contour>
      <point x="303" y="694" type="move" name="top"/>
    </contour>
    <contour>
      <point x="-7" y="694" type="move" name="topleft"/>
    </contour>
    <contour>
      <point x="304" y="0" type="move" name="bottom"/>
    </contour>
  </outline>
</glyph>
<glyph name="F" format="1">
  <advance width="541"/>
  <unicode hex="0046"/>
  <note>
    F
  </note>
  <outline>
    <contour>
      <point x="132" y="0" type="line"/>
      <point x="132" y="694" type="line"/>
      <point x="110" y="694" type="line"/>
      <point x="110" y="0" type="line"/>
    </contour>
    <contour>
      <point x="473" y="366" type="line"/>
      <point x="473" y="384" type="line"/>
      <point x="119" y="384" type="line"/>
      <point x="119" y="366" type="line"/>
    </contour>
    <contour>
      <point x="497" y="676" type="line"/>
      <point x="497" y="694" type="line"/>
      <point x="119" y="694" type="line"/>
      <point x="119" y="676" type="line"/>
    </contour>
    <contour>
      <point x="270" y="694" type="move" name="top"/>
    </contour>
    <contour>
      <point x="270" y="0" type="move" name="bottom"/>
    </contour>
  </outline>
</glyph>
<glyph name="H" format="1">
  <advance width="702"/>
  <unicode hex="0048"/>
  <note>
    H
  </note>
  <outline>
    <contour>
      <point x="592" y="0" type="line"/>
      <point x="592" y="694" type="line"/>
      <point x="570" y="694" type="line"/>
      <point x="570" y="0" type="line"/>
    </contour>
    <contour>
      <point x="132" y="0" type="line"/>
      <point x="132" y="694" type="line"/>
      <point x="110" y="694" type="line"/>
      <point x="110" y="0" type="line"/>
    </contour>
    <contour>
      <point x="576" y="352" type="line"/>
      <point x="576" y="371" type="line"/>
      <point x="125" y="371" type="line"/>
      <point x="125" y="352" type="line"/>
    </contour>
    <contour>
      <point x="353" y="0" type="move" name="bottom"/>
    </contour>
    <contour>
      <point x="353" y="694" type="move" name="top"/>
    </contour>
    <contour>
      <point x="2" y="694" type="move" name="topleft"/>
    </contour>
    <contour>
      <point x="353" y="534" type="move" name="center"/>
    </contour>
  </outline>
</glyph>
<glyph name="I" format="1">
  <advance width="241"/>
  <unicode hex="0049"/>
  <note>
    I
  </note>
  <outline>
    <contour>
      <point x="131" y="0" type="line"/>
      <point x="131" y="694" type="line"/>
      <point x="110" y="694" type="line"/>
      <point x="110" y="0" type="line"/>
    </contour>
    <contour>
      <point x="125" y="10" type="move" name="ogonek"/>
    </contour>
    <contour>
      <point x="121" y="694" type="move" name="top"/>
    </contour>
    <contour>
      <point x="-6" y="694" type="move" name="topleft"/>
    </contour>
    <contour>
      <point x="121" y="0" type="move" name="bottom"/>
    </contour>
  </outline>
</glyph>
<glyph name="K" format="1">
  <advance width="552"/>
  <unicode hex="004B"/>
  <note>
    K
  </note>
  <outline>
    <contour>
      <point x="527" y="0" type="line"/>
      <point x="151" y="366" type="line"/>
      <point x="151" y="356" type="line"/>
      <point x="513" y="694" type="line"/>
      <point x="484" y="694" type="line"/>
      <point x="132" y="360" type="line"/>
      <point x="497" y="0" type="line"/>
    </contour>
    <contour>
      <point x="130" y="0" type="line"/>
      <point x="130" y="694" type="line"/>
      <point x="110" y="694" type="line"/>
      <point x="110" y="0" type="line"/>
    </contour>
    <contour>
      <point x="283" y="694" type="move" name="top"/>
    </contour>
    <contour>
      <point x="283" y="0" type="move" name="bottom"/>
    </contour>
  </outline>
</glyph>
<glyph name="L" format="1">
  <advance width="495"/>
  <unicode hex="004C"/>
  <note>
    L
  </note>
  <outline>
    <contour>
      <point x="456" y="0" type="line"/>
      <point x="456" y="19" type="line"/>
      <point x="131" y="19" type="line"/>
      <point x="131" y="694" type="line"/>
      <point x="110" y="694" type="line"/>
      <point x="110" y="0" type="line"/>
    </contour>
    <contour>
      <point x="286" y="0" type="move" name="bottom"/>
    </contour>
    <contour>
      <point x="502" y="352" type="move" name="periodcentered"/>
    </contour>
    <contour>
      <point x="122" y="694" type="move" name="top"/>
    </contour>
    <contour>
      <point x="251" y="480" type="move" name="topright"/>
    </contour>
    <contour>
      <point x="162" y="367" type="move" name="center"/>
    </contour>
  </outline>
</glyph>
<glyph name="N" format="1">
  <advance width="732"/>
  <unicode hex="004E"/>
  <note>
    N
  </note>
  <outline>
    <contour>
      <point x="130" y="0" type="line"/>
      <point x="130" y="674" type="line"/>
      <point x="129" y="674" type="line"/>
      <point x="595" y="0" type="line"/>
      <point x="622" y="0" type="line"/>
      <point x="622" y="694" type="line"/>
      <point x="602" y="694" type="line"/>
      <point x="602" y="20" type="line"/>
      <point x="605" y="20" type="line"/>
      <point x="139" y="694" type="line"/>
      <point x="110" y="694" type="line"/>
      <point x="110" y="0" type="line"/>
    </contour>
    <contour>
      <point x="377" y="694" type="move" name="top"/>
    </contour>
    <contour>
      <point x="377" y="0" type="move" name="bottom"/>
    </contour>
  </outline>
</glyph>
<glyph name="O" format="1">
  <advance width="754"/>
  <unicode hex="004F"/>
  <note>
    O
  </note>
  <outline>
    <contour>
      <point x="559" y="-10"/>
      <point x="682" y="135"/>
      <point x="682" y="346" type="curve" smooth="yes"/>
      <point x="682" y="558"/>
      <point x="561" y="699"/>
      <point x="379" y="699" type="curve" smooth="yes"/>
      <point x="194" y="699"/>
      <point x="71" y="553"/>
      <point x="71" y="343" type="curve" smooth="yes"/>
      <point x="71" y="133"/>
      <point x="193" y="-10"/>
      <point x="376" y="-10" type="curve" smooth="yes"/>
    </contour>
    <contour>
      <point x="207" y="9"/>
      <point x="93" y="147"/>
      <point x="93" y="346" type="curve" smooth="yes"/>
      <point x="93" y="545"/>
      <point x="206" y="680"/>
      <point x="376" y="680" type="curve" smooth="yes"/>
      <point x="546" y="680"/>
      <point x="660" y="542"/>
      <point x="660" y="343" type="curve" smooth="yes"/>
      <point x="660" y="143"/>
      <point x="548" y="9"/>
      <point x="378" y="9" type="curve" smooth="yes"/>
    </contour>
    <contour>
      <point x="379" y="345" type="move" name="center"/>
    </contour>
    <contour>
      <point x="459" y="10" type="move" name="ogonek"/>
    </contour>
    <contour>
      <point x="378" y="0" type="move" name="bottom"/>
    </contour>
    <contour>
      <point x="598" y="94" type="move" name="Qtail"/>
    </contour>
    <contour>
      <point x="378" y="694" type="move" name="top"/>
    </contour>
    <contour>
      <point x="-3" y="694" type="move" name="topleft"/>
    </contour>
    <contour>
      <point x="653" y="694" type="move" name="topright"/>
    </contour>
  </outline>
</glyph>
<glyph name="T" format="1">
  <advance width="589"/>
  <unicode hex="0054"/>
  <note>
    T
  </note>
  <outline>
    <contour>
      <point x="305" y="0" type="line"/>
      <point x="305" y="694" type="line"/>
      <point x="284" y="694" type="line"/>
      <point x="284" y="0" type="line"/>
    </contour>
    <contour>
      <point x="550" y="676" type="line"/>
      <point x="550" y="694" type="line"/>
      <point x="39" y="694" type="line"/>
      <point x="39" y="676" type="line"/>
    </contour>
    <contour>
      <point x="295" y="357" type="move" name="center"/>
    </contour>
    <contour>
      <point x="292" y="0" type="move" name="bottom"/>
    </contour>
    <contour>
      <point x="295" y="694" type="move" name="top"/>
    </contour>
  </outline>
</glyph>
<glyph name="U" format="1">
  <advance width="673"/>
  <unicode hex="0055"/>
  <note>
    U
  </note>
  <outline>
    <contour>
      <point x="486" y="-10"/>
      <point x="574" y="85"/>
      <point x="574" y="246" type="curve" smooth="yes"/>
      <point x="574" y="694" type="line"/>
      <point x="553" y="694" type="line"/>
      <point x="553" y="246" type="line" smooth="yes"/>
      <point x="553" y="97"/>
      <point x="474" y="9"/>
      <point x="340" y="9" type="curve" smooth="yes"/>
      <point x="202" y="9"/>
      <point x="121" y="97"/>
      <point x="121" y="246" type="curve" smooth="yes"/>
      <point x="121" y="694" type="line"/>
      <point x="99" y="694" type="line"/>
      <point x="99" y="246" type="line" smooth="yes"/>
      <point x="99" y="85"/>
      <point x="187" y="-10"/>
      <point x="337" y="-10" type="curve" smooth="yes"/>
    </contour>
    <contour>
      <point x="420" y="10" type="move" name="ogonek"/>
    </contour>
    <contour>
      <point x="338" y="694" type="move" name="top"/>
    </contour>
    <contour>
      <point x="635" y="694" type="move" name="topright"/>
    </contour>
    <contour>
      <point x="338" y="0" type="move" name="bottom"/>
    </contour>
  </outline>
</glyph>
<glyph name="V" format="1">
  <advance width="603"/>
  <unicode hex="0056"/>
  <note>
    V
  </note>
  <outline>
    <contour>
      <point x="308" y="0" type="line"/>
      <point x="565" y="694" type="line"/>
      <point x="544" y="694" type="line"/>
      <point x="299" y="30" type="line"/>
      <point x="308" y="30" type="line"/>
      <point x="61" y="694" type="line"/>
      <point x="38" y="694" type="line"/>
      <point x="297" y="0" type="line"/>
    </contour>
    <contour>
      <point x="302" y="694" type="move" name="top"/>
    </contour>
    <contour>
      <point x="302" y="0" type="move" name="bottom"/>
    </contour>
  </outline>
</glyph>
<glyph name="W" format="1">
  <advance width="986"/>
  <unicode hex="0057"/>
  <note>
    W
  </note>
  <outline>
    <contour>
      <point x="278" y="0" type="line"/>
      <point x="502" y="666" type="line"/>
      <point x="488" y="666" type="line"/>
      <point x="719" y="0" type="line"/>
      <point x="732" y="0" type="line"/>
      <point x="944" y="694" type="line"/>
      <point x="923" y="694" type="line"/>
      <point x="722" y="32" type="line"/>
      <point x="730" y="32" type="line"/>
      <point x="502" y="688" type="line"/>
      <point x="489" y="688" type="line"/>
      <point x="269" y="32" type="line"/>
      <point x="277" y="32" type="line"/>
      <point x="64" y="694" type="line"/>
      <point x="41" y="694" type="line"/>
      <point x="266" y="0" type="line"/>
    </contour>
    <contour>
      <point x="494" y="694" type="move" name="top"/>
    </contour>
    <contour>
      <point x="494" y="0" type="move" name="bottom"/>
    </contour>
  </outline>
</glyph>
<glyph name="Y" format="1">
  <advance width="528"/>
  <unicode hex="0059"/>
  <note>
    Y
  </note>
  <outline>
    <contour>
      <point x="275" y="0" type="line"/>
      <point x="275" y="333" type="line"/>
      <point x="507" y="694" type="line"/>
      <point x="484" y="694" type="line"/>
      <point x="262" y="344" type="line"/>
      <point x="270" y="344" type="line"/>
      <point x="47" y="694" type="line"/>
      <point x="21" y="694" type="line"/>
      <point x="254" y="333" type="line"/>
      <point x="254" y="0" type="line"/>
    </contour>
    <contour>
      <point x="269" y="694" type="move" name="top"/>
    </contour>
    <contour>
      <point x="269" y="0" type="move" name="bottom"/>
    </contour>
    <contour>
      <point x="3" y="694" type="move" name="topleft"/>
    </contour>
  </outline>
</glyph>
<glyph name="i" format="1">
  <advance width="201"/>
  <unicode hex="0069"/>
  <note>
    i
  </note>
  <outline>
    <component base="idotless"/>
    <component base="uni0307" xOffset="-17"/>
    <contour>
      <point x="114" y="0" type="move" name="bottom"/>
    </contour>
  </outline>
</glyph>
<glyph name="k" format="1">
  <advance width="432"/>
  <unicode hex="006B"/>
  <note>
    k
  </note>
  <outline>
    <contour>
      <point x="108" y="0" type="line"/>
      <point x="108" y="739" type="line"/>
      <point x="88" y="739" type="line"/>
      <point x="88" y="0" type="line"/>
    </contour>
    <contour>
      <point x="425" y="0" type="line"/>
      <point x="129" y="267" type="line"/>
      <point x="127" y="249" type="line"/>
      <point x="403" y="480" type="line"/>
      <point x="376" y="480" type="line"/>
      <point x="110" y="257" type="line"/>
      <point x="396" y="0" type="line"/>
    </contour>
    <contour>
      <point x="205" y="480" type="move" name="top"/>
    </contour>
    <contour>
      <point x="205" y="0" type="move" name="bottom"/>
    </contour>
  </outline>
</glyph>
<glyph name="v" format="1">
  <advance width="453"/>
  <unicode hex="0076"/>
  <note>
    v
  </note>
  <outline>
    <contour>
      <point x="237" y="0" type="line"/>
      <point x="426" y="480" type="line"/>
      <point x="405" y="480" type="line"/>
      <point x="224" y="14" type="line"/>
      <point x="233" y="14" type="line"/>
      <point x="50" y="480" type="line"/>
      <point x="27" y="480" type="line"/>
      <point x="219" y="0" type="line"/>
    </contour>
    <contour>
      <point x="227" y="480" type="move" name="top"/>
    </contour>
    <contour>
      <point x="227" y="0" type="move" name="bottom"/>
    </contour>
  </outline>
</glyph>
<glyph name="x" format="1">
  <advance width="437"/>
  <unicode hex="0078"/>
  <note>
    x
  </note>
  <outline>
    <contour>
      <point x="52" y="0" type="line"/>
      <point x="222" y="238" type="line"/>
      <point x="412" y="480" type="line"/>
      <point x="390" y="480" type="line"/>
      <point x="212" y="251" type="line"/>
      <point x="30" y="0" type="line"/>
    </contour>
    <contour>
      <point x="399" y="0" type="line"/>
      <point x="222" y="250" type="line"/>
      <point x="51" y="480" type="line"/>
      <point x="27" y="480" type="line"/>
      <point x="210" y="235" type="line"/>
      <point x="375" y="0" type="line"/>
    </contour>
    <contour>
      <point x="217" y="480" type="move" name="top"/>
    </contour>
    <contour>
      <point x="219" y="0" type="move" name="bottom"/>
    </contour>
  </outline>
</glyph>
<glyph name="ordmasculine" format="1">
  <advance width="75"/>
  <unicode hex="00BA"/>
  <outline>
    <contour>
      <point x="300" y="377"/>
      <point x="365" y="452"/>
      <point x="365" y="564" type="curve" smooth="yes"/>
      <point x="365" y="676"/>
      <point x="301" y="749"/>
      <point x="208" y="749" type="curve" smooth="yes"/>
      <point x="111" y="749"/>
      <point x="47" y="673"/>
      <point x="47" y="562" type="curve" smooth="yes"/>
      <point x="47" y="451"/>
      <point x="110" y="377"/>
      <point x="206" y="377" type="curve" smooth="yes"/>
    </contour>
    <contour>
      <point x="121" y="393"/>
      <point x="66" y="462"/>
      <point x="66" y="564" type="curve" smooth="yes"/>
      <point x="66" y="663"/>
      <point x="119" y="733"/>
      <point x="204" y="733" type="curve" smooth="yes"/>
      <point x="289" y="733"/>
      <point x="346" y="666"/>
      <point x="346" y="562" type="curve" smooth="yes"/>
      <point x="346" y="459"/>
      <point x="291" y="393"/>
      <point x="208" y="393" type="curve" smooth="yes"/>
    </contour>
  </outline>
</glyph>
<glyph name="Eogonek" format="1">
  <advance width="553"/>
  <unicode hex="0118"/>
  <outline>
    <component base="E"/>
    <component base="uni0328" xOffset="97"/>
    <contour>
      <point x="285" y="694" type="move" name="top"/>
    </contour>
  </outline>
</glyph>
<glyph name="idotless" format="1">
  <advance width="201"/>
  <unicode hex="0131"/>
  <note>
    dotlessi
  </note>
  <outline>
    <contour>
      <point x="111" y="0" type="line"/>
      <point x="111" y="480" type="line"/>
      <point x="90" y="480" type="line"/>
      <point x="90" y="0" type="line"/>
    </contour>
    <contour>
      <point x="105" y="10" type="move" name="ogonek"/>
    </contour>
    <contour>
      <point x="100" y="0" type="move" name="bottom"/>
    </contour>
    <contour>
      <point x="102" y="480" type="move" name="top"/>
    </contour>
  </outline>
</glyph>
<glyph name="Schwa" format="1">
  <advance width="150"/>
  <unicode hex="018F"/>
  <outline>
    <contour>
      <point x="245" y="704"/>
      <point x="174" y="681"/>
      <point x="106" y="633" type="curve"/>
      <point x="111" y="617" type="line"/>
      <point x="180" y="663"/>
      <point x="249" y="685"/>
      <point x="326" y="685" type="curve" smooth="yes"/>
      <point x="521" y="685"/>
      <point x="642" y="558"/>
      <point x="642" y="342" type="curve" smooth="yes"/>
      <point x="642" y="140"/>
      <point x="537" y="9"/>
      <point x="366" y="9" type="curve" smooth="yes"/>
      <point x="202" y="9"/>
      <point x="105" y="130"/>
      <point x="105" y="321" type="curve"/>
      <point x="660" y="321" type="line"/>
      <point x="660" y="340" type="line"/>
      <point x="83" y="340" type="line"/>
      <point x="82" y="332"/>
      <point x="82" y="328"/>
      <point x="82" y="318" type="curve" smooth="yes"/>
      <point x="82" y="123"/>
      <point x="191" y="-10"/>
      <point x="364" y="-10" type="curve" smooth="yes"/>
      <point x="540" y="-10"/>
      <point x="665" y="130"/>
      <point x="665" y="342" type="curve" smooth="yes"/>
      <point x="665" y="562"/>
      <point x="532" y="704"/>
      <point x="328" y="704" type="curve" smooth="yes"/>
    </contour>
    <contour>
      <point x="369" y="694" type="move" name="top"/>
    </contour>
    <contour>
      <point x="369" y="0" type="move" name="bottom"/>
    </contour>
  </outline>
</glyph>
<glyph name="jdotless" format="1">
  <advance width="202"/>
  <unicode hex="0237"/>
  <note>
    uni0237
  </note>
  <outline>
    <contour>
      <point x="69" y="-191"/>
      <point x="112" y="-129"/>
      <point x="112" y="-64" type="curve" smooth="yes"/>
      <point x="112" y="480" type="line"/>
      <point x="91" y="480" type="line"/>
      <point x="91" y="-64" type="line" smooth="yes"/>
      <point x="91" y="-122"/>
      <point x="54" y="-178"/>
      <point x="-2" y="-206" type="curve"/>
      <point x="5" y="-219" type="line"/>
    </contour>
    <contour>
      <point x="101" y="480" type="move" name="top"/>
    </contour>
    <contour>
      <point x="101" y="0" type="move" name="bottom"/>
    </contour>
  </outline>
</glyph>
<glyph name="gravecomb" format="1">
  <advance width="242"/>
  <unicode hex="0300"/>
  <outline>
    <contour>
      <point x="188" y="584" type="line"/>
      <point x="94" y="722" type="line"/>
      <point x="76" y="709" type="line"/>
      <point x="180" y="577" type="line"/>
    </contour>
    <contour>
      <point x="142" y="711" type="move" name="top"/>
    </contour>
    <contour>
      <point x="234" y="576" type="move" name="top_dot"/>
    </contour>
    <contour>
      <point x="184" y="480" type="move" name="_top"/>
    </contour>
  </outline>
</glyph>
<glyph name="acutecomb" format="1">
  <advance width="242"/>
  <unicode hex="0301"/>
  <outline>
    <contour>
      <point x="172" y="709" type="line"/>
      <point x="154" y="722" type="line"/>
      <point x="60" y="584" type="line"/>
      <point x="68" y="577" type="line"/>
    </contour>
    <contour>
      <point x="97" y="711" type="move" name="top"/>
    </contour>
    <contour>
      <point x="13" y="576" type="move" name="top_dot"/>
    </contour>
    <contour>
      <point x="67" y="480" type="move" name="_top"/>
    </contour>
  </outline>
</glyph>
<glyph name="uni0302" format="1">
  <advance width="353"/>
  <unicode hex="0302"/>
  <outline>
    <contour>
      <point x="61" y="578" type="line"/>
      <point x="171" y="691" type="line"/>
      <point x="284" y="577" type="line"/>
      <point x="296" y="588" type="line"/>
      <point x="181" y="708" type="line"/>
      <point x="165" y="708" type="line"/>
      <point x="55" y="584" type="line"/>
    </contour>
    <contour>
      <point x="171" y="678" type="move" name="top"/>
    </contour>
    <contour>
      <point x="299" y="622" type="move" name="top_viet"/>
    </contour>
    <contour>
      <point x="171" y="480" type="move" name="_top"/>
    </contour>
  </outline>
</glyph>
<glyph name="uni0304" format="1">
  <advance width="485"/>
  <unicode hex="0304"/>
  <outline>
    <contour>
      <point x="383" y="628" type="line"/>
      <point x="383" y="643" type="line"/>
      <point x="102" y="643" type="line"/>
      <point x="102" y="628" type="line"/>
    </contour>
    <contour>
      <point x="243" y="598" type="move" name="top"/>
    </contour>
    <contour>
      <point x="243" y="480" type="move" name="_top"/>
    </contour>
  </outline>
</glyph>
<glyph name="uni0308" format="1">
  <advance width="438"/>
  <unicode hex="0308"/>
  <outline>
    <contour>
      <point x="146" y="627"/>
      <point x="155" y="636"/>
      <point x="155" y="648" type="curve" smooth="yes"/>
      <point x="155" y="660"/>
      <point x="146" y="669"/>
      <point x="134" y="669" type="curve" smooth="yes"/>
      <point x="122" y="669"/>
      <point x="113" y="660"/>
      <point x="113" y="648" type="curve" smooth="yes"/>
      <point x="113" y="636"/>
      <point x="122" y="627"/>
      <point x="134" y="627" type="curve" smooth="yes"/>
    </contour>
    <contour>
      <point x="316" y="627"/>
      <point x="325" y="636"/>
      <point x="325" y="648" type="curve" smooth="yes"/>
      <point x="325" y="660"/>
      <point x="316" y="669"/>
      <point x="304" y="669" type="curve" smooth="yes"/>
      <point x="292" y="669"/>
      <point x="283" y="660"/>
      <point x="283" y="648" type="curve" smooth="yes"/>
      <point x="283" y="636"/>
      <point x="292" y="627"/>
      <point x="304" y="627" type="curve" smooth="yes"/>
    </contour>
    <contour>
      <point x="219" y="639" type="move" name="top"/>
    </contour>
    <contour>
      <point x="219" y="480" type="move" name="_top"/>
    </contour>
  </outline>
</glyph>
<glyph name="uni030B" format="1">
  <advance width="402"/>
  <unicode hex="030B"/>
  <outline>
    <contour>
      <point x="293" y="718" type="line"/>
      <point x="273" y="727" type="line"/>
      <point x="205" y="574" type="line"/>
      <point x="212" y="570" type="line"/>
    </contour>
    <contour>
      <point x="155" y="718" type="line"/>
      <point x="135" y="727" type="line"/>
      <point x="67" y="574" type="line"/>
      <point x="74" y="570" type="line"/>
    </contour>
    <contour>
      <point x="141" y="749" type="move" name="top"/>
    </contour>
    <contour>
      <point x="141" y="480" type="move" name="_top"/>
    </contour>
  </outline>
</glyph>
<glyph name="uni0311" format="1">
  <advance width="401"/>
  <unicode hex="0311"/>
  <outline>
    <contour>
      <point x="102" y="650"/>
      <point x="144" y="695"/>
      <point x="196" y="695" type="curve" smooth="yes"/>
      <point x="250" y="695"/>
      <point x="292" y="651"/>
      <point x="300" y="586" type="curve"/>
      <point x="317" y="592" type="line"/>
      <point x="308" y="665"/>
      <point x="261" y="713"/>
      <point x="203" y="713" type="curve" smooth="yes"/>
      <point x="142" y="713"/>
      <point x="94" y="663"/>
      <point x="85" y="588" type="curve"/>
      <point x="95" y="582" type="line"/>
    </contour>
    <contour>
      <point x="201" y="713" type="move" name="top"/>
    </contour>
    <contour>
      <point x="201" y="480" type="move" name="_top"/>
    </contour>
  </outline>
</glyph>
<glyph name="dotbelowcomb" format="1">
  <advance width="240"/>
  <unicode hex="0323"/>
  <outline>
    <contour>
      <point x="132" y="-143"/>
      <point x="141" y="-134"/>
      <point x="141" y="-122" type="curve" smooth="yes"/>
      <point x="141" y="-110"/>
      <point x="132" y="-101"/>
      <point x="120" y="-101" type="curve" smooth="yes"/>
      <point x="108" y="-101"/>
      <point x="99" y="-110"/>
      <point x="99" y="-122" type="curve" smooth="yes"/>
      <point x="99" y="-134"/>
      <point x="108" y="-143"/>
      <point x="120" y="-143" type="curve" smooth="yes"/>
    </contour>
    <contour>
      <point x="120" y="0" type="move" name="_bottom"/>
    </contour>
    <contour>
      <point x="120" y="-143" type="move" name="bottom"/>
    </contour>
  </outline>
</glyph>
<glyph name="uni0324" format="1">
  <advance width="440"/>
  <unicode hex="0324"/>
  <outline>
    <contour>
      <point x="132" y="-143"/>
      <point x="141" y="-134"/>
      <point x="141" y="-122" type="curve" smooth="yes"/>
      <point x="141" y="-110"/>
      <point x="132" y="-101"/>
      <point x="120" y="-101" type="curve" smooth="yes"/>
      <point x="108" y="-101"/>
      <point x="99" y="-110"/>
      <point x="99" y="-122" type="curve" smooth="yes"/>
      <point x="99" y="-134"/>
      <point x="108" y="-143"/>
      <point x="120" y="-143" type="curve" smooth="yes"/>
    </contour>
    <contour>
      <point x="332" y="-143"/>
      <point x="341" y="-134"/>
      <point x="341" y="-122" type="curve" smooth="yes"/>
      <point x="341" y="-110"/>
      <point x="332" y="-101"/>
      <point x="320" y="-101" type="curve" smooth="yes"/>
      <point x="308" y="-101"/>
      <point x="299" y="-110"/>
      <point x="299" y="-122" type="curve" smooth="yes"/>
      <point x="299" y="-134"/>
      <point x="308" y="-143"/>
      <point x="320" y="-143" type="curve" smooth="yes"/>
    </contour>
    <contour>
      <point x="220" y="0" type="move" name="_bottom"/>
    </contour>
    <contour>
      <point x="220" y="-143" type="move" name="bottom"/>
    </contour>
  </outline>
</glyph>
<glyph name="uni032E" format="1">
  <advance width="412"/>
  <unicode hex="032E"/>
  <outline>
    <contour>
      <point x="269" y="-174"/>
      <point x="318" y="-134"/>
      <point x="340" y="-64" type="curve"/>
      <point x="330" y="-60" type="line"/>
      <point x="310" y="-121"/>
      <point x="265" y="-157"/>
      <point x="212" y="-157" type="curve" smooth="yes"/>
      <point x="160" y="-157"/>
      <point x="120" y="-124"/>
      <point x="96" y="-62" type="curve"/>
      <point x="79" y="-69" type="line"/>
      <point x="102" y="-136"/>
      <point x="149" y="-174"/>
      <point x="208" y="-174" type="curve" smooth="yes"/>
    </contour>
    <contour>
      <point x="206" y="0" type="move" name="_bottom"/>
    </contour>
    <contour>
      <point x="206" y="-174" type="move" name="bottom"/>
    </contour>
  </outline>
</glyph>
<glyph name="uni0331" format="1">
  <advance width="499"/>
  <unicode hex="0331"/>
  <outline>
    <contour>
      <point x="385" y="-125" type="line"/>
      <point x="385" y="-110" type="line"/>
      <point x="114" y="-110" type="line"/>
      <point x="114" y="-125" type="line"/>
    </contour>
    <contour>
      <point x="250" y="0" type="move" name="_bottom"/>
    </contour>
    <contour>
      <point x="250" y="-125" type="move" name="bottom"/>
    </contour>
  </outline>
</glyph>
<glyph name="strokeshortcomb" format="1">
  <advance width="472"/>
  <unicode hex="0335"/>
  <outline>
    <contour>
      <point x="354" y="291" type="line"/>
      <point x="354" y="307" type="line"/>
      <point x="127" y="307" type="line"/>
      <point x="127" y="291" type="line"/>
    </contour>
    <contour>
      <point x="241" y="299" type="move" name="_center"/>
    </contour>
  </outline>
</glyph>
<glyph name="slashshortcomb" format="1">
  <advance width="369"/>
  <unicode hex="0337"/>
  <outline>
    <contour>
      <point x="317" y="351" type="line"/>
      <point x="308" y="365" type="line"/>
      <point x="93" y="243" type="line"/>
      <point x="101" y="230" type="line"/>
    </contour>
    <contour>
      <point x="202" y="296" type="move" name="_center"/>
    </contour>
  </outline>
</glyph>
<glyph name="iota" format="1">
  <advance width="232"/>
  <unicode hex="03B9"/>
  <outline>
    <contour>
      <point x="180" y="-2"/>
      <point x="198" y="2"/>
      <point x="212" y="8" type="curve"/>
      <point x="207" y="22" type="line"/>
      <point x="196" y="17"/>
      <point x="181" y="14"/>
      <point x="168" y="14" type="curve" smooth="yes"/>
      <point x="129" y="14"/>
      <point x="106" y="43"/>
      <point x="106" y="87" type="curve" smooth="yes"/>
      <point x="106" y="480" type="line"/>
      <point x="86" y="480" type="line"/>
      <point x="86" y="83" type="line" smooth="yes"/>
      <point x="86" y="31"/>
      <point x="115" y="-2"/>
      <point x="163" y="-2" type="curve" smooth="yes"/>
    </contour>
    <contour>
      <point x="96" y="480" type="move" name="top"/>
    </contour>
  </outline>
</glyph>
<glyph name="pi" format="1">
  <advance width="566"/>
  <unicode hex="03C0"/>
  <outline>
    <contour>
      <point x="487" y="-10"/>
      <point x="505" y="-5"/>
      <point x="520" y="4" type="curve"/>
      <point x="517" y="17" type="line"/>
      <point x="503" y="11"/>
      <point x="485" y="7"/>
      <point x="471" y="7" type="curve" smooth="yes"/>
      <point x="447" y="7"/>
      <point x="431" y="30"/>
      <point x="431" y="64" type="curve" smooth="yes"/>
      <point x="431" y="471" type="line"/>
      <point x="410" y="471" type="line"/>
      <point x="410" y="64" type="line" smooth="yes"/>
      <point x="410" y="20"/>
      <point x="434" y="-10"/>
      <point x="469" y="-10" type="curve" smooth="yes"/>
    </contour>
    <contour>
      <point x="140" y="0" type="line"/>
      <point x="140" y="471" type="line"/>
      <point x="119" y="471" type="line"/>
      <point x="119" y="0" type="line"/>
    </contour>
    <contour>
      <point x="512" y="463" type="line"/>
      <point x="512" y="480" type="line"/>
      <point x="37" y="480" type="line"/>
      <point x="37" y="463" type="line"/>
    </contour>
  </outline>
</glyph>
<glyph name="tau" format="1">
  <advance width="438"/>
  <unicode hex="03C4"/>
  <outline>
    <contour>
      <point x="423" y="463" type="line"/>
      <point x="423" y="480" type="line"/>
      <point x="12" y="480" type="line"/>
      <point x="12" y="463" type="line"/>
    </contour>
    <component base="iota" xOffset="117"/>
  </outline>
</glyph>
<glyph name="uni0402" format="1">
  <advance width="765"/>
  <unicode hex="0402"/>
  <outline>
    <contour>
      <point x="604" y="0"/>
      <point x="706" y="88"/>
      <point x="706" y="219" type="curve" smooth="yes"/>
      <point x="706" y="326"/>
      <point x="634" y="431"/>
      <point x="500" y="431" type="curve" smooth="yes"/>
      <point x="410" y="431"/>
      <point x="319" y="397"/>
      <point x="272" y="345" type="curve"/>
      <point x="282" y="334" type="line"/>
      <point x="325" y="381"/>
      <point x="411" y="413"/>
      <point x="498" y="413" type="curve" smooth="yes"/>
      <point x="618" y="413"/>
      <point x="685" y="314"/>
      <point x="685" y="217" type="curve" smooth="yes"/>
      <point x="685" y="98"/>
      <point x="591" y="18"/>
      <point x="450" y="18" type="curve"/>
      <point x="450" y="0" type="line"/>
    </contour>
    <contour>
      <point x="291" y="0" type="line"/>
      <point x="291" y="694" type="line"/>
      <point x="270" y="694" type="line"/>
      <point x="270" y="0" type="line"/>
    </contour>
    <contour>
      <point x="543" y="676" type="line"/>
      <point x="543" y="694" type="line"/>
      <point x="39" y="694" type="line"/>
      <point x="39" y="676" type="line"/>
    </contour>
  </outline>
</glyph>
<glyph name="uni0413" format="1">
  <advance width="509"/>
  <unicode hex="0413"/>
  <outline>
    <contour>
      <point x="132" y="0" type="line"/>
      <point x="132" y="676" type="line"/>
      <point x="487" y="676" type="line"/>
      <point x="487" y="694" type="line"/>
      <point x="110" y="694" type="line"/>
      <point x="110" y="0" type="line"/>
    </contour>
    <contour>
      <point x="265" y="694" type="move" name="top"/>
    </contour>
    <contour>
      <point x="169" y="0" type="move" name="bottomright"/>
    </contour>
  </outline>
</glyph>
<glyph name="uni0414" format="1">
  <advance width="700"/>
  <unicode hex="0414"/>
  <outline>
    <contour>
      <point x="186" y="14"/>
      <point x="245" y="197"/>
      <point x="245" y="537" type="curve" smooth="yes"/>
      <point x="245" y="675" type="line"/>
      <point x="563" y="675" type="line"/>
      <point x="563" y="6" type="line"/>
      <point x="585" y="6" type="line"/>
      <point x="585" y="694" type="line"/>
      <point x="223" y="694" type="line"/>
      <point x="223" y="539" type="line" smooth="yes"/>
      <point x="223" y="223"/>
      <point x="167" y="30"/>
      <point x="72" y="19" type="curve"/>
      <point x="74" y="2" type="line"/>
    </contour>
    <contour>
      <point x="60" y="-175" type="line"/>
      <point x="60" y="0" type="line"/>
      <point x="632" y="0" type="line"/>
      <point x="632" y="-175" type="line"/>
      <point x="653" y="-175" type="line"/>
      <point x="653" y="19" type="line"/>
      <point x="39" y="19" type="line"/>
      <point x="39" y="-175" type="line"/>
    </contour>
  </outline>
</glyph>
<glyph name="uni0416" format="1">
  <advance width="884"/>
  <unicode hex="0416"/>
  <outline>
    <contour>
      <point x="847" y="0" type="line"/>
      <point x="603" y="364" type="line"/>
      <point x="603" y="354" type="line"/>
      <point x="835" y="694" type="line"/>
      <point x="808" y="694" type="line"/>
      <point x="584" y="358" type="line"/>
      <point x="821" y="0" type="line"/>
    </contour>
    <contour>
      <point x="63" y="0" type="line"/>
      <point x="300" y="359" type="line"/>
      <point x="77" y="694" type="line"/>
      <point x="50" y="694" type="line"/>
      <point x="281" y="354" type="line"/>
      <point x="280" y="363" type="line"/>
      <point x="37" y="0" type="line"/>
    </contour>
    <contour>
      <point x="598" y="349" type="line"/>
      <point x="598" y="367" type="line"/>
      <point x="278" y="367" type="line"/>
      <point x="278" y="349" type="line"/>
    </contour>
    <contour>
      <point x="452" y="0" type="line"/>
      <point x="452" y="694" type="line"/>
      <point x="432" y="694" type="line"/>
      <point x="432" y="0" type="line"/>
    </contour>
    <contour>
      <point x="442" y="694" type="move" name="top"/>
    </contour>
    <contour>
      <point x="865" y="0" type="move" name="bottomright"/>
    </contour>
  </outline>
</glyph>
<glyph name="uni041A" format="1">
  <advance width="561"/>
  <unicode hex="041A"/>
  <outline>
    <contour>
      <point x="526" y="0" type="line"/>
      <point x="231" y="364" type="line"/>
      <point x="231" y="353" type="line"/>
      <point x="511" y="694" type="line"/>
      <point x="487" y="694" type="line"/>
      <point x="212" y="357" type="line"/>
      <point x="501" y="0" type="line"/>
    </contour>
    <contour>
      <point x="130" y="0" type="line"/>
      <point x="130" y="694" type="line"/>
      <point x="110" y="694" type="line"/>
      <point x="110" y="0" type="line"/>
    </contour>
    <contour>
      <point x="226" y="348" type="line"/>
      <point x="226" y="366" type="line"/>
      <point x="119" y="366" type="line"/>
      <point x="119" y="348" type="line"/>
    </contour>
    <contour>
      <point x="285" y="694" type="move" name="top"/>
    </contour>
    <contour>
      <point x="544" y="0" type="move" name="bottomright"/>
    </contour>
  </outline>
</glyph>
<glyph name="uni041B" format="1">
  <advance width="670"/>
  <unicode hex="041B"/>
  <outline>
    <contour>
      <point x="41" y="-6" type="line"/>
      <point x="156" y="4"/>
      <point x="224" y="131"/>
      <point x="224" y="337" type="curve" smooth="yes"/>
      <point x="224" y="675" type="line"/>
      <point x="538" y="675" type="line"/>
      <point x="538" y="0" type="line"/>
      <point x="560" y="0" type="line"/>
      <point x="560" y="694" type="line"/>
      <point x="202" y="694" type="line"/>
      <point x="202" y="339" type="line" smooth="yes"/>
      <point x="202" y="145"/>
      <point x="141" y="24"/>
      <point x="38" y="13" type="curve"/>
    </contour>
  </outline>
</glyph>
<glyph name="uni041E" format="1">
  <advance width="754"/>
  <unicode hex="041E"/>
  <outline>
    <component base="O"/>
    <contour>
      <point x="377" y="694" type="move" name="top"/>
    </contour>
  </outline>
</glyph>
<glyph name="uni041F" format="1">
  <advance width="671"/>
  <unicode hex="041F"/>
  <outline>
    <contour>
      <point x="131" y="0" type="line"/>
      <point x="131" y="676" type="line"/>
      <point x="540" y="676" type="line"/>
      <point x="540" y="0" type="line"/>
      <point x="561" y="0" type="line"/>
      <point x="561" y="694" type="line"/>
      <point x="110" y="694" type="line"/>
      <point x="110" y="0" type="line"/>
    </contour>
    <contour>
      <point x="651" y="0" type="move" name="bottomright"/>
    </contour>
  </outline>
</glyph>
<glyph name="uni0423" format="1">
  <advance width="594"/>
  <unicode hex="0423"/>
  <outline>
    <contour>
      <point x="190" y="0" type="line"/>
      <point x="560" y="694" type="line"/>
      <point x="537" y="694" type="line"/>
      <point x="313" y="263" type="line"/>
      <point x="306" y="253" type="line"/>
      <point x="168" y="0" type="line"/>
    </contour>
    <contour>
      <point x="317" y="263" type="line"/>
      <point x="58" y="694" type="line"/>
      <point x="33" y="694" type="line"/>
      <point x="306" y="245" type="line"/>
    </contour>
    <contour>
      <point x="297" y="694" type="move" name="top"/>
    </contour>
  </outline>
</glyph>
<glyph name="uni0424" format="1">
  <advance width="794"/>
  <unicode hex="0424"/>
  <outline>
    <contour>
      <point x="617" y="106"/>
      <point x="733" y="190"/>
      <point x="733" y="351" type="curve" smooth="yes"/>
      <point x="733" y="511"/>
      <point x="618" y="595"/>
      <point x="398" y="595" type="curve" smooth="yes"/>
      <point x="177" y="595"/>
      <point x="61" y="511"/>
      <point x="61" y="349" type="curve" smooth="yes"/>
      <point x="61" y="189"/>
      <point x="176" y="106"/>
      <point x="396" y="106" type="curve" smooth="yes"/>
    </contour>
    <contour>
      <point x="191" y="125"/>
      <point x="83" y="202"/>
      <point x="83" y="351" type="curve" smooth="yes"/>
      <point x="83" y="499"/>
      <point x="190" y="576"/>
      <point x="396" y="576" type="curve" smooth="yes"/>
      <point x="603" y="576"/>
      <point x="711" y="498"/>
      <point x="711" y="349" type="curve" smooth="yes"/>
      <point x="711" y="202"/>
      <point x="604" y="125"/>
      <point x="399" y="125" type="curve" smooth="yes"/>
    </contour>
    <contour>
      <point x="406" y="-10" type="line"/>
      <point x="406" y="704" type="line"/>
      <point x="385" y="704" type="line"/>
      <point x="385" y="-10" type="line"/>
    </contour>
  </outline>
</glyph>
<glyph name="uni0427" format="1">
  <advance width="616"/>
  <unicode hex="0427"/>
  <outline>
    <contour>
      <point x="365" y="263"/>
      <point x="453" y="292"/>
      <point x="503" y="329" type="curve"/>
      <point x="493" y="340" type="line"/>
      <point x="449" y="309"/>
      <point x="362" y="281"/>
      <point x="278" y="281" type="curve" smooth="yes"/>
      <point x="162" y="281"/>
      <point x="94" y="338"/>
      <point x="94" y="435" type="curve" smooth="yes"/>
      <point x="94" y="694" type="line"/>
      <point x="73" y="694" type="line"/>
      <point x="73" y="435" type="line" smooth="yes"/>
      <point x="73" y="328"/>
      <point x="146" y="263"/>
      <point x="276" y="263" type="curve" smooth="yes"/>
    </contour>
    <contour>
      <point x="506" y="0" type="line"/>
      <point x="506" y="694" type="line"/>
      <point x="485" y="694" type="line"/>
      <point x="485" y="0" type="line"/>
    </contour>
    <contour>
      <point x="309" y="694" type="move" name="top"/>
    </contour>
    <contour>
      <point x="532" y="0" type="move" name="bottomright"/>
    </contour>
  </outline>
</glyph>
<glyph name="uni0428" format="1">
  <advance width="954"/>
  <unicode hex="0428"/>
  <outline>
    <contour>
      <point x="844" y="0" type="line"/>
      <point x="844" y="694" type="line"/>
      <point x="822" y="694" type="line"/>
      <point x="822" y="19" type="line"/>
      <point x="132" y="19" type="line"/>
      <point x="132" y="694" type="line"/>
      <point x="110" y="694" type="line"/>
      <point x="110" y="0" type="line"/>
    </contour>
    <contour>
      <point x="496" y="10" type="line"/>
      <point x="496" y="694" type="line"/>
      <point x="474" y="694" type="line"/>
      <point x="474" y="10" type="line"/>
    </contour>
  </outline>
</glyph>
<glyph name="uni0429" format="1">
  <advance width="959"/>
  <unicode hex="0429"/>
  <outline>
    <contour>
      <point x="912" y="-175" type="line"/>
      <point x="912" y="19" type="line"/>
      <point x="132" y="19" type="line"/>
      <point x="132" y="694" type="line"/>
      <point x="110" y="694" type="line"/>
      <point x="110" y="0" type="line"/>
      <point x="891" y="0" type="line"/>
      <point x="891" y="-175" type="line"/>
    </contour>
    <contour>
      <point x="496" y="10" type="line"/>
      <point x="496" y="694" type="line"/>
      <point x="474" y="694" type="line"/>
      <point x="474" y="10" type="line"/>
    </contour>
    <contour>
      <point x="844" y="10" type="line"/>
      <point x="844" y="694" type="line"/>
      <point x="822" y="694" type="line"/>
      <point x="822" y="10" type="line"/>
    </contour>
  </outline>
</glyph>
<glyph name="uni0430" format="1">
  <advance width="466"/>
  <unicode hex="0430"/>
  <outline>
    <component base="a"/>
    <contour>
      <point x="233" y="480" type="move" name="top"/>
    </contour>
  </outline>
</glyph>
<glyph name="uni0431" format="1">
  <advance width="515"/>
  <unicode hex="0431"/>
  <outline>
    <contour>
      <point x="384" y="-10"/>
      <point x="460" y="83"/>
      <point x="460" y="222" type="curve" smooth="yes"/>
      <point x="460" y="363"/>
      <point x="390" y="446"/>
      <point x="273" y="446" type="curve" smooth="yes"/>
      <point x="183" y="446"/>
      <point x="112" y="400"/>
      <point x="81" y="322" type="curve"/>
      <point x="81" y="292" type="line"/>
      <point x="115" y="381"/>
      <point x="180" y="428"/>
      <point x="265" y="428" type="curve" smooth="yes"/>
      <point x="374" y="428"/>
      <point x="439" y="353"/>
      <point x="439" y="220" type="curve" smooth="yes"/>
      <point x="439" y="91"/>
      <point x="372" y="8"/>
      <point x="266" y="8" type="curve" smooth="yes"/>
      <point x="149" y="8"/>
      <point x="89" y="115"/>
      <point x="89" y="322" type="curve" smooth="yes"/>
      <point x="89" y="564"/>
      <point x="134" y="648"/>
      <point x="280" y="672" type="curve" smooth="yes"/>
      <point x="347" y="683"/>
      <point x="407" y="707"/>
      <point x="431" y="734" type="curve"/>
      <point x="421" y="749" type="line"/>
      <point x="396" y="727"/>
      <point x="333" y="703"/>
      <point x="273" y="692" type="curve" smooth="yes"/>
      <point x="120" y="664"/>
      <point x="69" y="568"/>
      <point x="69" y="316" type="curve" smooth="yes"/>
      <point x="69" y="101"/>
      <point x="135" y="-10"/>
      <point x="265" y="-10" type="curve" smooth="yes"/>
    </contour>
  </outline>
</glyph>
<glyph name="uni0433" format="1">
  <advance width="80"/>
  <unicode hex="0433"/>
  <outline>
    <contour>
      <point x="109" y="0" type="line"/>
      <point x="109" y="463" type="line"/>
      <point x="389" y="463" type="line"/>
      <point x="389" y="480" type="line"/>
      <point x="88" y="480" type="line"/>
      <point x="88" y="0" type="line"/>
    </contour>
    <contour>
      <point x="205" y="480" type="move" name="top"/>
    </contour>
    <contour>
      <point x="143" y="0" type="move" name="bottomright"/>
    </contour>
  </outline>
</glyph>
<glyph name="uni0434" format="1">
  <advance width="80"/>
  <unicode hex="0434"/>
  <outline>
    <contour>
      <point x="129" y="8"/>
      <point x="179" y="141"/>
      <point x="179" y="368" type="curve" smooth="yes"/>
      <point x="179" y="463" type="line"/>
      <point x="404" y="463" type="line"/>
      <point x="404" y="4" type="line"/>
      <point x="423" y="4" type="line"/>
      <point x="423" y="480" type="line"/>
      <point x="160" y="480" type="line"/>
      <point x="160" y="369" type="line" smooth="yes"/>
      <point x="160" y="158"/>
      <point x="118" y="25"/>
      <point x="46" y="16" type="curve"/>
      <point x="49" y="0" type="line"/>
    </contour>
    <contour>
      <point x="38" y="-121" type="line"/>
      <point x="38" y="0" type="line"/>
      <point x="466" y="0" type="line"/>
      <point x="466" y="-121" type="line"/>
      <point x="484" y="-121" type="line"/>
      <point x="484" y="17" type="line"/>
      <point x="20" y="17" type="line"/>
      <point x="20" y="-121" type="line"/>
    </contour>
  </outline>
</glyph>
<glyph name="uni0436" format="1">
  <advance width="80"/>
  <unicode hex="0436"/>
  <outline>
    <contour>
      <point x="668" y="0" type="line"/>
      <point x="492" y="259" type="line"/>
      <point x="492" y="251" type="line"/>
      <point x="658" y="480" type="line"/>
      <point x="632" y="480" type="line"/>
      <point x="472" y="254" type="line"/>
      <point x="642" y="0" type="line"/>
    </contour>
    <contour>
      <point x="46" y="0" type="line"/>
      <point x="217" y="255" type="line"/>
      <point x="58" y="480" type="line"/>
      <point x="31" y="480" type="line"/>
      <point x="197" y="251" type="line"/>
      <point x="196" y="258" type="line"/>
      <point x="21" y="0" type="line"/>
    </contour>
    <contour>
      <point x="486" y="246" type="line"/>
      <point x="486" y="263" type="line"/>
      <point x="196" y="263" type="line"/>
      <point x="196" y="246" type="line"/>
    </contour>
    <contour>
      <point x="355" y="0" type="line"/>
      <point x="355" y="480" type="line"/>
      <point x="334" y="480" type="line"/>
      <point x="334" y="0" type="line"/>
    </contour>
    <contour>
      <point x="345" y="480" type="move" name="top"/>
    </contour>
    <contour>
      <point x="688" y="0" type="move" name="bottomright"/>
    </contour>
  </outline>
</glyph>
<glyph name="uni0438" format="1">
  <advance width="80"/>
  <unicode hex="0438"/>
  <outline>
    <contour>
      <point x="110" y="0" type="line"/>
      <point x="431" y="460" type="line"/>
      <point x="429" y="460" type="line"/>
      <point x="429" y="0" type="line"/>
      <point x="448" y="0" type="line"/>
      <point x="448" y="480" type="line"/>
      <point x="426" y="480" type="line"/>
      <point x="105" y="19" type="line"/>
      <point x="107" y="20" type="line"/>
      <point x="107" y="480" type="line"/>
      <point x="88" y="480" type="line"/>
      <point x="88" y="0" type="line"/>
    </contour>
    <contour>
      <point x="268" y="480" type="move" name="top"/>
    </contour>
    <contour>
      <point x="509" y="0" type="move" name="bottomright"/>
    </contour>
  </outline>
</glyph>
<glyph name="uni043C" format="1">
  <advance width="75"/>
  <unicode hex="043C"/>
  <outline>
    <contour>
      <point x="107" y="0" type="line"/>
      <point x="107" y="461" type="line"/>
      <point x="101" y="461" type="line"/>
      <point x="294" y="75" type="line"/>
      <point x="311" y="75" type="line"/>
      <point x="509" y="461" type="line"/>
      <point x="504" y="461" type="line"/>
      <point x="504" y="0" type="line"/>
      <point x="522" y="0" type="line"/>
      <point x="522" y="480" type="line"/>
      <point x="501" y="480" type="line"/>
      <point x="299" y="85" type="line"/>
      <point x="309" y="85" type="line"/>
      <point x="111" y="480" type="line"/>
      <point x="88" y="480" type="line"/>
      <point x="88" y="0" type="line"/>
    </contour>
  </outline>
</glyph>
<glyph name="uni043D" format="1">
  <advance width="79"/>
  <unicode hex="043D"/>
  <outline>
    <contour>
      <point x="441" y="0" type="line"/>
      <point x="441" y="480" type="line"/>
      <point x="420" y="480" type="line"/>
      <point x="420" y="0" type="line"/>
    </contour>
    <contour>
      <point x="109" y="0" type="line"/>
      <point x="109" y="480" type="line"/>
      <point x="88" y="480" type="line"/>
      <point x="88" y="0" type="line"/>
    </contour>
    <contour>
      <point x="428" y="245" type="line"/>
      <point x="428" y="262" type="line"/>
      <point x="100" y="262" type="line"/>
      <point x="100" y="245" type="line"/>
    </contour>
    <contour>
      <point x="473" y="0" type="move" name="bottomright"/>
    </contour>
  </outline>
</glyph>
<glyph name="uni043F" format="1">
  <advance width="79"/>
  <unicode hex="043F"/>
  <outline>
    <contour>
      <point x="108" y="0" type="line"/>
      <point x="108" y="463" type="line"/>
      <point x="422" y="463" type="line"/>
      <point x="422" y="0" type="line"/>
      <point x="442" y="0" type="line"/>
      <point x="442" y="480" type="line"/>
      <point x="88" y="480" type="line"/>
      <point x="88" y="0" type="line"/>
    </contour>
    <contour>
      <point x="509" y="0" type="move" name="bottomright"/>
    </contour>
  </outline>
</glyph>
<glyph name="uni0443" format="1">
  <advance width="453"/>
  <unicode hex="0443"/>
  <outline>
    <component base="y"/>
    <contour>
      <point x="227" y="480" type="move" name="top"/>
    </contour>
  </outline>
</glyph>
<glyph name="uni0444" format="1">
  <advance width="765"/>
  <unicode hex="0444"/>
  <outline>
    <contour>
      <point x="392" y="-217" type="line"/>
      <point x="392" y="739" type="line"/>
      <point x="373" y="739" type="line"/>
      <point x="373" y="-217" type="line"/>
    </contour>
    <contour>
      <point x="297" y="-10"/>
      <point x="348" y="23"/>
      <point x="379" y="85" type="curve"/>
      <point x="375" y="106" type="line"/>
      <point x="348" y="44"/>
      <point x="299" y="8"/>
      <point x="242" y="8" type="curve" smooth="yes"/>
      <point x="145" y="8"/>
      <point x="81" y="101"/>
      <point x="81" y="239" type="curve" smooth="yes"/>
      <point x="81" y="374"/>
      <point x="142" y="468"/>
      <point x="238" y="468" type="curve" smooth="yes"/>
      <point x="297" y="468"/>
      <point x="348" y="431"/>
      <point x="375" y="367" type="curve"/>
      <point x="380" y="396" type="line"/>
      <point x="350" y="455"/>
      <point x="301" y="486"/>
      <point x="241" y="486" type="curve" smooth="yes"/>
      <point x="133" y="486"/>
      <point x="60" y="385"/>
      <point x="60" y="237" type="curve" smooth="yes"/>
      <point x="60" y="90"/>
      <point x="132" y="-10"/>
      <point x="239" y="-10" type="curve" smooth="yes"/>
    </contour>
    <contour>
      <point x="632" y="-10"/>
      <point x="705" y="91"/>
      <point x="705" y="240" type="curve" smooth="yes"/>
      <point x="705" y="388"/>
      <point x="633" y="486"/>
      <point x="528" y="486" type="curve" smooth="yes"/>
      <point x="459" y="486"/>
      <point x="406" y="444"/>
      <point x="379" y="375" type="curve"/>
      <point x="383" y="355" type="line"/>
      <point x="408" y="425"/>
      <point x="459" y="468"/>
      <point x="523" y="468" type="curve" smooth="yes"/>
      <point x="619" y="468"/>
      <point x="684" y="378"/>
      <point x="684" y="237" type="curve" smooth="yes"/>
      <point x="684" y="98"/>
      <point x="621" y="8"/>
      <point x="527" y="8" type="curve" smooth="yes"/>
      <point x="462" y="8"/>
      <point x="409" y="53"/>
      <point x="384" y="126" type="curve"/>
      <point x="380" y="96" type="line"/>
      <point x="408" y="29"/>
      <point x="459" y="-10"/>
      <point x="526" y="-10" type="curve" smooth="yes"/>
    </contour>
  </outline>
</glyph>
<glyph name="uni0447" format="1">
  <advance width="78"/>
  <unicode hex="0447"/>
  <outline>
    <contour>
      <point x="283" y="181"/>
      <point x="353" y="199"/>
      <point x="397" y="228" type="curve"/>
      <point x="389" y="239" type="line"/>
      <point x="351" y="215"/>
      <point x="280" y="199"/>
      <point x="220" y="199" type="curve" smooth="yes"/>
      <point x="129" y="199"/>
      <point x="74" y="237"/>
      <point x="74" y="301" type="curve" smooth="yes"/>
      <point x="74" y="480" type="line"/>
      <point x="53" y="480" type="line"/>
      <point x="53" y="300" type="line" smooth="yes"/>
      <point x="53" y="225"/>
      <point x="115" y="181"/>
      <point x="217" y="181" type="curve" smooth="yes"/>
    </contour>
    <contour>
      <point x="402" y="0" type="line"/>
      <point x="402" y="480" type="line"/>
      <point x="382" y="480" type="line"/>
      <point x="382" y="0" type="line"/>
    </contour>
    <contour>
      <point x="245" y="480" type="move" name="top"/>
    </contour>
    <contour>
      <point x="435" y="0" type="move" name="bottomright"/>
    </contour>
  </outline>
</glyph>
<glyph name="uni0448" format="1">
  <advance width="80"/>
  <unicode hex="0448"/>
  <outline>
    <contour>
      <point x="680" y="0" type="line"/>
      <point x="680" y="480" type="line"/>
      <point x="659" y="480" type="line"/>
      <point x="659" y="17" type="line"/>
      <point x="109" y="17" type="line"/>
      <point x="109" y="480" type="line"/>
      <point x="88" y="480" type="line"/>
      <point x="88" y="0" type="line"/>
    </contour>
    <contour>
      <point x="400" y="9" type="line"/>
      <point x="400" y="480" type="line"/>
      <point x="379" y="480" type="line"/>
      <point x="379" y="9" type="line"/>
    </contour>
  </outline>
</glyph>
<glyph name="uni044F" format="1">
  <advance width="76"/>
  <unicode hex="044F"/>
  <outline>
    <contour>
      <point x="377" y="196" type="line"/>
      <point x="377" y="214" type="line"/>
      <point x="226" y="214" type="line" smooth="yes"/>
      <point x="130" y="214"/>
      <point x="70" y="262"/>
      <point x="70" y="341" type="curve" smooth="yes"/>
      <point x="70" y="417"/>
      <point x="128" y="462"/>
      <point x="220" y="462" type="curve" smooth="yes"/>
      <point x="377" y="462" type="line"/>
      <point x="377" y="480" type="line"/>
      <point x="226" y="480" type="line" smooth="yes"/>
      <point x="116" y="480"/>
      <point x="49" y="424"/>
      <point x="49" y="336" type="curve" smooth="yes"/>
      <point x="49" y="250"/>
      <point x="116" y="196"/>
      <point x="221" y="196" type="curve" smooth="yes"/>
    </contour>
    <contour>
      <point x="70" y="0" type="line"/>
      <point x="210" y="209" type="line"/>
      <point x="188" y="209" type="line"/>
      <point x="45" y="0" type="line"/>
    </contour>
    <contour>
      <point x="389" y="0" type="line"/>
      <point x="389" y="480" type="line"/>
      <point x="368" y="480" type="line"/>
      <point x="368" y="0" type="line"/>
    </contour>
    <contour>
      <point x="238" y="480" type="move" name="top"/>
    </contour>
  </outline>
</glyph>
<glyph name="uni045F" format="1">
  <advance width="70"/>
  <unicode hex="045F"/>
  <outline>
    <contour>
      <point x="281" y="-122" type="line"/>
      <point x="281" y="0" type="line"/>
      <point x="445" y="0" type="line"/>
      <point x="445" y="480" type="line"/>
      <point x="425" y="480" type="line"/>
      <point x="425" y="18" type="line"/>
      <point x="108" y="18" type="line"/>
      <point x="108" y="480" type="line"/>
      <point x="88" y="480" type="line"/>
      <point x="88" y="0" type="line"/>
      <point x="261" y="0" type="line"/>
      <point x="261" y="-122" type="line"/>
    </contour>
  </outline>
</glyph>
<glyph name="uni046B" format="1">
  <advance width="80"/>
  <unicode hex="046B"/>
  <outline>
    <contour>
      <point x="328" y="251" type="line"/>
      <point x="140" y="475" type="line"/>
      <point x="138" y="469" type="line"/>
      <point x="537" y="469" type="line"/>
      <point x="535" y="475" type="line"/>
      <point x="347" y="252" type="line"/>
      <point x="368" y="252" type="line"/>
      <point x="554" y="468" type="line"/>
      <point x="554" y="486" type="line"/>
      <point x="120" y="486" type="line"/>
      <point x="120" y="468" type="line"/>
      <point x="306" y="251" type="line"/>
    </contour>
    <contour>
      <point x="44" y="0" type="line"/>
      <point x="231" y="247" type="line"/>
      <point x="218" y="240" type="line"/>
      <point x="327" y="240" type="line"/>
      <point x="327" y="0" type="line"/>
      <point x="347" y="0" type="line"/>
      <point x="347" y="240" type="line"/>
      <point x="456" y="240" type="line"/>
      <point x="442" y="247" type="line"/>
      <point x="629" y="0" type="line"/>
      <point x="655" y="0" type="line"/>
      <point x="459" y="258" type="line"/>
      <point x="215" y="258" type="line"/>
      <point x="19" y="0" type="line"/>
    </contour>
  </outline>
</glyph>
<glyph name="uni0475" format="1">
  <advance width="70"/>
  <unicode hex="0475"/>
  <outline>
    <contour>
      <point x="220" y="0" type="line"/>
      <point x="348" y="367" type="line" smooth="yes"/>
      <point x="374" y="441"/>
      <point x="408" y="476"/>
      <point x="455" y="476" type="curve"/>
      <point x="453" y="494" type="line"/>
      <point x="401" y="494"/>
      <point x="358" y="452"/>
      <point x="330" y="370" type="curve" smooth="yes"/>
      <point x="210" y="20" type="line"/>
      <point x="219" y="20" type="line"/>
      <point x="48" y="486" type="line"/>
      <point x="26" y="486" type="line"/>
      <point x="207" y="0" type="line"/>
    </contour>
  </outline>
</glyph>
<glyph name="uni0494" format="1">
  <advance width="623"/>
  <unicode hex="0494"/>
  <outline>
    <contour>
      <point x="503" y="-202"/>
      <point x="561" y="-79"/>
      <point x="561" y="77" type="curve" smooth="yes"/>
      <point x="561" y="282"/>
      <point x="482" y="391"/>
      <point x="334" y="391" type="curve" smooth="yes"/>
      <point x="250" y="391"/>
      <point x="162" y="356"/>
      <point x="117" y="305" type="curve"/>
      <point x="127" y="294" type="line"/>
      <point x="170" y="341"/>
      <point x="253" y="373"/>
      <point x="330" y="373" type="curve" smooth="yes"/>
      <point x="468" y="373"/>
      <point x="540" y="271"/>
      <point x="540" y="75" type="curve" smooth="yes"/>
      <point x="540" y="-69"/>
      <point x="488" y="-187"/>
      <point x="390" y="-220" type="curve"/>
      <point x="395" y="-230" type="line"/>
    </contour>
    <contour>
      <point x="131" y="0" type="line"/>
      <point x="131" y="676" type="line"/>
      <point x="476" y="676" type="line"/>
      <point x="476" y="694" type="line"/>
      <point x="110" y="694" type="line"/>
      <point x="110" y="0" type="line"/>
    </contour>
  </outline>
</glyph>
<glyph name="uni0495" format="1">
  <advance width="80"/>
  <unicode hex="0495"/>
  <outline>
    <contour>
      <point x="109" y="0" type="line"/>
      <point x="109" y="463" type="line"/>
      <point x="387" y="463" type="line"/>
      <point x="387" y="480" type="line"/>
      <point x="88" y="480" type="line"/>
      <point x="88" y="0" type="line"/>
    </contour>
    <contour>
      <point x="104" y="209" type="line"/>
      <point x="140" y="244"/>
      <point x="201" y="265"/>
      <point x="265" y="265" type="curve" smooth="yes"/>
      <point x="378" y="265"/>
      <point x="423" y="200"/>
      <point x="423" y="39" type="curve" smooth="yes"/>
      <point x="423" y="-98"/>
      <point x="392" y="-168"/>
      <point x="313" y="-206" type="curve"/>
      <point x="318" y="-217" type="line"/>
      <point x="404" y="-185"/>
      <point x="444" y="-103"/>
      <point x="444" y="39" type="curve" smooth="yes"/>
      <point x="444" y="209"/>
      <point x="391" y="283"/>
      <point x="268" y="283" type="curve" smooth="yes"/>
      <point x="199" y="283"/>
      <point x="135" y="260"/>
      <point x="95" y="220" type="curve"/>
    </contour>
  </outline>
</glyph>
<glyph name="uni04A1" format="1">
  <advance width="559"/>
  <unicode hex="04A1"/>
  <outline>
    <contour>
      <point x="538" y="0" type="line"/>
      <point x="358" y="260" type="line"/>
      <point x="358" y="251" type="line"/>
      <point x="526" y="480" type="line"/>
      <point x="503" y="480" type="line"/>
      <point x="339" y="254" type="line"/>
      <point x="514" y="0" type="line"/>
    </contour>
    <contour>
      <point x="220" y="0" type="line"/>
      <point x="220" y="480" type="line"/>
      <point x="201" y="480" type="line"/>
      <point x="201" y="0" type="line"/>
    </contour>
    <contour>
      <point x="352" y="245" type="line"/>
      <point x="352" y="262" type="line"/>
      <point x="209" y="262" type="line"/>
      <point x="209" y="245" type="line"/>
    </contour>
    <contour>
      <point x="220" y="463" type="line"/>
      <point x="220" y="480" type="line"/>
      <point x="12" y="480" type="line"/>
      <point x="12" y="463" type="line"/>
    </contour>
  </outline>
</glyph>
<glyph name="uni04AE" format="1">
  <advance width="528"/>
  <unicode hex="04AE"/>
  <outline>
    <component base="Y"/>
    <contour>
      <point x="264" y="326" type="move" name="center"/>
    </contour>
  </outline>
</glyph>
<glyph name="uni04AF" format="1">
  <advance width="453"/>
  <unicode hex="04AF"/>
  <outline>
    <contour>
      <point x="237" y="-217" type="line"/>
      <point x="237" y="0" type="line"/>
      <point x="219" y="0" type="line"/>
      <point x="219" y="-217" type="line"/>
    </contour>
    <component base="v"/>
    <contour>
      <point x="228" y="-6" type="move" name="center"/>
    </contour>
  </outline>
</glyph>
<glyph name="uni27E9" format="1">
  <advance width="266"/>
  <unicode hex="27E9"/>
  <outline>
    <contour>
      <point x="69" y="-10" type="line"/>
      <point x="216" y="378" type="line"/>
      <point x="72" y="739" type="line"/>
      <point x="50" y="739" type="line"/>
      <point x="201" y="369" type="line"/>
      <point x="198" y="384" type="line"/>
      <point x="49" y="-10" type="line"/>
    </contour>
  </outline>
</glyph>
<glyph name="_slash.zero" format="1">
  <advance width="600"/>
  <outline>
    <contour>
      <point x="382" y="463" type="line"/>
      <point x="367" y="474" type="line"/>
      <point x="48" y="-2" type="line"/>
      <point x="63" y="-13" type="line"/>
    </contour>
    <contour>
      <point x="223" y="241" type="move" name="_slash"/>
    </contour>
  </outline>
</glyph>
<glyph name="acutecomb.case" format="1">
  <advance width="262"/>
  <outline>
    <contour>
      <point x="196" y="866" type="line"/>
      <point x="181" y="883" type="line"/>
      <point x="53" y="764" type="line"/>
      <point x="59" y="758" type="line"/>
    </contour>
    <contour>
      <point x="53" y="764" type="move" name="top"/>
    </contour>
    <contour>
      <point x="58" y="694" type="move" name="_top"/>
    </contour>
  </outline>
</glyph>
<glyph name="acutecomb.loclVIET" format="1">
  <advance width="0"/>
  <outline>
    <contour>
      <point x="177" y="704" type="line"/>
      <point x="160" y="718" type="line"/>
      <point x="54" y="589" type="line"/>
      <point x="62" y="581" type="line"/>
    </contour>
    <contour>
      <point x="102" y="682" type="move" name="top"/>
    </contour>
    <contour>
      <point x="31" y="577" type="move" name="top_dot"/>
    </contour>
    <contour>
      <point x="65" y="480" type="move" name="_top"/>
    </contour>
  </outline>
</glyph>
<glyph name="brevecomb-cy.case" format="1">
  <advance width="371"/>
  <outline>
    <component base="brevecomb-cy" yOffset="164"/>
    <contour>
      <point x="193" y="892" type="move" name="top"/>
    </contour>
    <contour>
      <point x="193" y="694" type="move" name="_top"/>
    </contour>
  </outline>
</glyph>
<glyph name="brevecomb-cy" format="1">
  <advance width="368"/>
  <outline>
    <contour>
      <point x="248" y="577"/>
      <point x="297" y="626"/>
      <point x="304" y="699" type="curve"/>
      <point x="288" y="704" type="line"/>
      <point x="282" y="637"/>
      <point x="241" y="592"/>
      <point x="186" y="592" type="curve" smooth="yes"/>
      <point x="131" y="592"/>
      <point x="89" y="636"/>
      <point x="80" y="702" type="curve"/>
      <point x="64" y="697" type="line"/>
      <point x="73" y="623"/>
      <point x="118" y="577"/>
      <point x="182" y="577" type="curve" smooth="yes"/>
    </contour>
    <contour>
      <point x="182" y="664" type="move" name="top"/>
    </contour>
    <contour>
      <point x="182" y="480" type="move" name="_top"/>
    </contour>
  </outline>
</glyph>
<glyph name="descenderreverse-cy.case" format="1">
  <advance width="241"/>
  <outline>
    <contour>
      <point x="31" y="-175" type="line"/>
      <point x="31" y="0" type="line"/>
      <point x="70" y="0" type="line"/>
      <point x="70" y="19" type="line"/>
      <point x="10" y="19" type="line"/>
      <point x="10" y="-175" type="line"/>
    </contour>
    <contour>
      <point x="114" y="0" type="move" name="_bottomright"/>
    </contour>
  </outline>
</glyph>
<glyph name="four.tf" format="1">
  <advance width="0"/>
  <outline>
    <contour>
      <point x="418" y="-10" type="line"/>
      <point x="418" y="694" type="line"/>
      <point x="401" y="694" type="line"/>
      <point x="39" y="200" type="line"/>
      <point x="39" y="190" type="line"/>
      <point x="542" y="190" type="line"/>
      <point x="542" y="207" type="line"/>
      <point x="61" y="207" type="line"/>
      <point x="61" y="202" type="line"/>
      <point x="400" y="667" type="line"/>
      <point x="400" y="665" type="line"/>
      <point x="400" y="-10" type="line"/>
    </contour>
  </outline>
</glyph>
<glyph name="four.tosf" format="1">
  <advance width="0"/>
  <outline>
    <contour>
      <point x="418" y="-110" type="line"/>
      <point x="418" y="594" type="line"/>
      <point x="401" y="594" type="line"/>
      <point x="39" y="100" type="line"/>
      <point x="39" y="90" type="line"/>
      <point x="542" y="90" type="line"/>
      <point x="542" y="107" type="line"/>
      <point x="61" y="107" type="line"/>
      <point x="61" y="102" type="line"/>
      <point x="400" y="567" type="line"/>
      <point x="400" y="565" type="line"/>
      <point x="400" y="-110" type="line"/>
    </contour>
  </outline>
</glyph>
<glyph name="gravecomb.case" format="1">
  <advance width="262"/>
  <outline>
    <contour>
      <point x="202" y="764" type="line"/>
      <point x="74" y="883" type="line"/>
      <point x="59" y="866" type="line"/>
      <point x="196" y="758" type="line"/>
    </contour>
    <contour>
      <point x="202" y="764" type="move" name="top"/>
    </contour>
    <contour>
      <point x="197" y="694" type="move" name="_top"/>
    </contour>
  </outline>
</glyph>
<glyph name="hookabovecomb.case" format="1">
  <advance width="346"/>
  <outline>
    <component base="hookabovecomb" xOffset="12" yOffset="199"/>
    <contour>
      <point x="155" y="953" type="move" name="top"/>
    </contour>
    <contour>
      <point x="155" y="694" type="move" name="_top"/>
    </contour>
  </outline>
</glyph>
<glyph name="hookabovecomb.loclVIET" format="1">
  <advance width="0"/>
  <outline>
    <contour>
      <point x="205" y="589"/>
      <point x="241" y="627"/>
      <point x="241" y="664" type="curve" smooth="yes"/>
      <point x="241" y="698"/>
      <point x="207" y="725"/>
      <point x="156" y="725" type="curve" smooth="yes"/>
      <point x="123" y="725"/>
      <point x="90" y="717"/>
      <point x="55" y="700" type="curve"/>
      <point x="60" y="687" type="line"/>
      <point x="91" y="701"/>
      <point x="126" y="708"/>
      <point x="153" y="708" type="curve" smooth="yes"/>
      <point x="193" y="708"/>
      <point x="221" y="686"/>
      <point x="221" y="659" type="curve" smooth="yes"/>
      <point x="221" y="628"/>
      <point x="189" y="594"/>
      <point x="143" y="575" type="curve"/>
      <point x="147" y="565" type="line"/>
    </contour>
    <contour>
      <point x="148" y="715" type="move" name="top"/>
    </contour>
    <contour>
      <point x="138" y="480" type="move" name="_top"/>
    </contour>
  </outline>
</glyph>
<glyph name="one.lf" format="1">
  <advance width="378"/>
  <outline>
    <contour>
      <point x="211" y="7" type="line"/>
      <point x="211" y="694" type="line"/>
      <point x="199" y="694" type="line"/>
      <point x="48" y="581" type="line"/>
      <point x="56" y="569" type="line"/>
      <point x="199" y="672" type="line"/>
      <point x="191" y="677" type="line"/>
      <point x="191" y="7" type="line"/>
    </contour>
    <contour>
      <point x="338" y="0" type="line"/>
      <point x="338" y="17" type="line"/>
      <point x="49" y="17" type="line"/>
      <point x="49" y="0" type="line"/>
    </contour>
  </outline>
</glyph>
<glyph name="seven.dnom" format="1">
  <advance width="74"/>
  <note>
    seven
  </note>
  <outline>
    <contour>
      <point x="125" y="0" type="line"/>
      <point x="340" y="460" type="line"/>
      <point x="340" y="472" type="line"/>
      <point x="20" y="472" type="line"/>
      <point x="20" y="453" type="line"/>
      <point x="322" y="453" type="line"/>
      <point x="318" y="462" type="line"/>
      <point x="101" y="0" type="line"/>
    </contour>
  </outline>
</glyph>
<glyph name="slashlongcomb.case" format="1">
  <advance width="580"/>
  <outline>
    <contour>
      <point x="541" y="736" type="line"/>
      <point x="529" y="744" type="line"/>
      <point x="37" y="-4" type="line"/>
      <point x="49" y="-12" type="line"/>
    </contour>
    <contour>
      <point x="289" y="366" type="move" name="_center"/>
    </contour>
  </outline>
</glyph>
<glyph name="slashshortcomb.case" format="1">
  <advance width="352"/>
  <outline>
    <contour>
      <point x="296" y="363" type="line"/>
      <point x="288" y="379" type="line"/>
      <point x="56" y="248" type="line"/>
      <point x="65" y="233" type="line"/>
    </contour>
    <contour>
      <point x="176" y="306" type="move" name="_center"/>
    </contour>
  </outline>
</glyph>
<glyph name="strokeshortcomb.case" format="1">
  <advance width="472"/>
  <outline>
    <contour>
      <point x="360" y="290" type="line"/>
      <point x="360" y="307" type="line"/>
      <point x="121" y="307" type="line"/>
      <point x="121" y="290" type="line"/>
    </contour>
    <contour>
      <point x="241" y="299" type="move" name="_center"/>
    </contour>
  </outline>
</glyph>
<glyph name="tildecomb.case" format="1">
  <advance width="487"/>
  <outline>
    <component base="tildecomb" xOffset="4" yOffset="180"/>
    <contour>
      <point x="244" y="836" type="move" name="top"/>
    </contour>
    <contour>
      <point x="244" y="694" type="move" name="_top"/>
    </contour>
  </outline>
</glyph>
<glyph name="uni0302.case" format="1">
  <advance width="362"/>
  <outline>
    <component base="uni0302" yOffset="177"/>
    <contour>
      <point x="177" y="834" type="move" name="top"/>
    </contour>
    <contour>
      <point x="302" y="779" type="move" name="top_viet"/>
    </contour>
    <contour>
      <point x="177" y="694" type="move" name="_top"/>
    </contour>
  </outline>
</glyph>
<glyph name="uni0302.loclVIET" format="1">
  <advance width="0"/>
  <outline>
    <contour>
      <point x="61" y="555" type="line"/>
      <point x="171" y="643" type="line"/>
      <point x="284" y="554" type="line"/>
      <point x="296" y="565" type="line"/>
      <point x="181" y="660" type="line"/>
      <point x="165" y="660" type="line"/>
      <point x="55" y="561" type="line"/>
    </contour>
    <contour>
      <point x="176" y="560" type="move" name="top"/>
    </contour>
    <contour>
      <point x="284" y="554" type="move" name="top_viet"/>
    </contour>
    <contour>
      <point x="176" y="480" type="move" name="_top"/>
    </contour>
  </outline>
</glyph>
<glyph name="uni0304.case" format="1">
  <advance width="475"/>
  <outline>
    <component base="uni0304" yOffset="166"/>
    <contour>
      <point x="238" y="822" type="move" name="top"/>
    </contour>
    <contour>
      <point x="238" y="694" type="move" name="_top"/>
    </contour>
  </outline>
</glyph>
<glyph name="uni0304.loclVIET" format="1">
  <advance width="475"/>
  <outline>
    <contour>
      <point x="378" y="579" type="line"/>
      <point x="378" y="594" type="line"/>
      <point x="97" y="594" type="line"/>
      <point x="97" y="579" type="line"/>
    </contour>
    <contour>
      <point x="238" y="549" type="move" name="top"/>
    </contour>
    <contour>
      <point x="238" y="480" type="move" name="_top"/>
    </contour>
  </outline>
</glyph>
<glyph name="uni0304.narrow" format="1">
  <advance width="394"/>
  <outline>
    <contour>
      <point x="292" y="628" type="line"/>
      <point x="292" y="643" type="line"/>
      <point x="102" y="643" type="line"/>
      <point x="102" y="628" type="line"/>
    </contour>
    <contour>
      <point x="197" y="643" type="move" name="top"/>
    </contour>
    <contour>
      <point x="197" y="480" type="move" name="_top"/>
    </contour>
  </outline>
</glyph>
<glyph name="uni0306.case" format="1">
  <advance width="416"/>
  <outline>
    <component base="uni0306" yOffset="164"/>
    <contour>
      <point x="203" y="805" type="move" name="top"/>
    </contour>
    <contour>
      <point x="203" y="694" type="move" name="_top"/>
    </contour>
  </outline>
</glyph>
<glyph name="uni0306.loclVIET" format="1">
  <advance width="0"/>
  <outline>
    <contour>
      <point x="257" y="554"/>
      <point x="307" y="595"/>
      <point x="316" y="654" type="curve"/>
      <point x="306" y="660" type="line"/>
      <point x="299" y="608"/>
      <point x="256" y="572"/>
      <point x="201" y="572" type="curve" smooth="yes"/>
      <point x="146" y="572"/>
      <point x="102" y="607"/>
      <point x="94" y="657" type="curve"/>
      <point x="77" y="650" type="line"/>
      <point x="86" y="593"/>
      <point x="135" y="554"/>
      <point x="195" y="554" type="curve" smooth="yes"/>
    </contour>
    <contour>
      <point x="198" y="560" type="move" name="top"/>
    </contour>
    <contour>
      <point x="208" y="480" type="move" name="_top"/>
    </contour>
  </outline>
</glyph>
<glyph name="uni0307.case" format="1">
  <advance width="238"/>
  <outline>
    <component base="uni0307" yOffset="168"/>
    <contour>
      <point x="119" y="837" type="move" name="top"/>
    </contour>
    <contour>
      <point x="119" y="694" type="move" name="_top"/>
    </contour>
  </outline>
</glyph>
<glyph name="uni0307.loclVIET" format="1">
  <advance width="238"/>
  <outline>
    <contour>
      <point x="131" y="567"/>
      <point x="140" y="576"/>
      <point x="140" y="588" type="curve" smooth="yes"/>
      <point x="140" y="600"/>
      <point x="131" y="609"/>
      <point x="119" y="609" type="curve" smooth="yes"/>
      <point x="107" y="609"/>
      <point x="98" y="600"/>
      <point x="98" y="588" type="curve" smooth="yes"/>
      <point x="98" y="576"/>
      <point x="107" y="567"/>
      <point x="119" y="567" type="curve" smooth="yes"/>
    </contour>
    <contour>
      <point x="119" y="559" type="move" name="top"/>
    </contour>
    <contour>
      <point x="119" y="480" type="move" name="_top"/>
    </contour>
  </outline>
</glyph>
<glyph name="uni030A.case" format="1">
  <advance width="347"/>
  <outline>
    <component base="uni030A" yOffset="176"/>
    <contour>
      <point x="174" y="921" type="move" name="top"/>
    </contour>
    <contour>
      <point x="174" y="694" type="move" name="_top"/>
    </contour>
  </outline>
</glyph>
<glyph name="uni030B.case" format="1">
  <advance width="443"/>
  <outline>
    <contour>
      <point x="182" y="895" type="line"/>
      <point x="166" y="911" type="line"/>
      <point x="53" y="777" type="line"/>
      <point x="59" y="772" type="line"/>
    </contour>
    <contour>
      <point x="362" y="895" type="line"/>
      <point x="346" y="911" type="line"/>
      <point x="233" y="777" type="line"/>
      <point x="239" y="772" type="line"/>
    </contour>
    <contour>
      <point x="172" y="926" type="move" name="top"/>
    </contour>
    <contour>
      <point x="172" y="694" type="move" name="_top"/>
    </contour>
  </outline>
</glyph>
<glyph name="uni030C.case" format="1">
  <advance width="349"/>
  <outline>
    <component base="uni030C" xOffset="-7" yOffset="173"/>
    <contour>
      <point x="175" y="803" type="move" name="top"/>
    </contour>
    <contour>
      <point x="175" y="694" type="move" name="_top"/>
    </contour>
  </outline>
</glyph>
<glyph name="uni030C.loclVIET" format="1">
  <advance width="0"/>
  <outline>
    <contour>
      <point x="300" y="671" type="line"/>
      <point x="184" y="580" type="line"/>
      <point x="69" y="667" type="line"/>
      <point x="58" y="656" type="line"/>
      <point x="176" y="562" type="line"/>
      <point x="191" y="562" type="line"/>
      <point x="306" y="665" type="line"/>
    </contour>
    <contour>
      <point x="185" y="579" type="move" name="top"/>
    </contour>
    <contour>
      <point x="185" y="480" type="move" name="_top"/>
    </contour>
  </outline>
</glyph>
<glyph name="uni030F.case" format="1">
  <advance width="443"/>
  <outline>
    <contour>
      <point x="362" y="777" type="line"/>
      <point x="249" y="911" type="line"/>
      <point x="233" y="895" type="line"/>
      <point x="356" y="772" type="line"/>
    </contour>
    <contour>
      <point x="182" y="777" type="line"/>
      <point x="69" y="911" type="line"/>
      <point x="53" y="895" type="line"/>
      <point x="176" y="772" type="line"/>
    </contour>
    <contour>
      <point x="243" y="926" type="move" name="top"/>
    </contour>
    <contour>
      <point x="243" y="694" type="move" name="_top"/>
    </contour>
  </outline>
</glyph>
<glyph name="uni0311.case" format="1">
  <advance width="414"/>
  <outline>
    <component base="uni0311" yOffset="160"/>
    <contour>
      <point x="206" y="872" type="move" name="top"/>
    </contour>
    <contour>
      <point x="206" y="694" type="move" name="_top"/>
    </contour>
  </outline>
</glyph>
<glyph name="uni0331.narrow" format="1">
  <advance width="441"/>
  <outline>
    <contour>
      <point x="329" y="-125" type="line"/>
      <point x="329" y="-110" type="line"/>
      <point x="112" y="-110" type="line"/>
      <point x="112" y="-125" type="line"/>
    </contour>
    <contour>
      <point x="221" y="0" type="move" name="_bottom"/>
    </contour>
    <contour>
      <point x="221" y="-125" type="move" name="bottom"/>
    </contour>
  </outline>
</glyph>
